<?xml version="1.0" standalone="no"?>
<!DOCTYPE svg PUBLIC "-//W3C//DTD SVG 1.1//EN" "http://www.w3.org/Graphics/SVG/1.1/DTD/svg11.dtd">
<svg width="100%" height="100%" viewBox="0 0 1500 1300" version="1.1" xmlns="http://www.w3.org/2000/svg" xmlns:xlink="http://www.w3.org/1999/xlink" xml:space="preserve" style="fill-rule:evenodd;clip-rule:evenodd;stroke-linejoin:round;stroke-miterlimit:1.41421;">
    <g id="Layer 1" transform="matrix(4.16667,0,0,4.16667,0,0)">
        <g transform="matrix(1,0,0,1,-120.611,-43.7732)">
            <path d="M369.252,174.843C371.915,170.814 374.534,166.848 377.271,162.708C376.306,162.732 376.045,163.275 375.684,163.632C373.588,165.71 371.515,167.81 369.435,169.905C367.476,171.88 367.452,172.265 369.252,174.843M285.108,140.28C286.738,138.399 287.907,136.549 287.049,133.932C286.205,131.353 285.846,128.62 285.173,125.98C284.689,124.08 284.515,122.085 283.367,120.334C283.947,126.983 284.527,133.632 285.108,140.28M361.198,138.611C360.957,138.616 360.715,138.621 360.474,138.627C361.499,145.547 361.109,152.308 358.377,158.891C360.166,158.406 361.659,157.784 363.145,157.144C363.451,157.012 363.691,156.772 363.76,156.424C364.172,154.342 365.131,152.19 364.669,150.159C363.78,146.249 362.384,142.453 361.198,138.611M288.694,159.257C288.173,159.764 288.403,160.398 288.398,160.956C288.368,164.895 288.318,168.834 288.375,172.773C288.463,178.972 287.391,177.177 292.916,179.64C293.37,179.842 293.903,180.417 294.371,179.925C294.701,179.579 294.359,178.998 294.231,178.527C292.624,172.566 291.031,166.601 289.4,160.647C289.271,160.174 289.343,159.534 288.694,159.257M340.928,137.233C341.84,145.718 340.951,153.985 338.339,162.17C340.231,161.637 341.856,160.927 343.52,160.323C344.438,159.99 344.769,159.461 344.747,158.495C344.686,155.599 344.543,152.706 344.449,149.812C344.307,145.342 342.207,141.448 340.928,137.233M305.854,134.085C305.991,134.152 306.129,134.22 306.267,134.287C308.125,132.088 309.991,129.896 311.835,127.685C312.204,127.242 312.148,126.654 312.178,126.108C312.587,118.734 313.002,111.361 313.405,103.988C313.432,103.502 313.581,102.968 313.003,102.157C310.564,113.047 308.209,123.566 305.854,134.085M296.512,231.646C294.983,231.646 293.453,231.692 291.926,231.631C290.852,231.588 290.465,231.926 291.044,232.906C292.194,234.854 292.545,236.785 291.226,238.818C290.696,239.634 291.061,239.974 291.987,239.967C294.881,239.941 297.777,239.909 300.669,239.979C302.061,240.013 302.189,239.465 301.57,238.464C300.553,236.817 300.638,235.217 301.605,233.595C301.77,233.318 301.831,232.979 301.986,232.693C302.445,231.847 302.048,231.638 301.263,231.645C299.679,231.658 298.096,231.65 296.512,231.646M263.171,157.547C261.008,144.818 260.806,132.196 260.81,119.472C259.987,119.725 260.085,120.17 260.018,120.518C258.909,126.372 257.841,132.234 256.673,138.077C256.402,139.434 256.523,140.642 256.996,141.914C258.729,146.582 260.398,151.274 262.115,155.948C262.293,156.433 262.298,157.041 263.171,157.547M347.885,127.911C347.272,128.432 347.454,128.959 347.486,129.405C347.742,132.895 348.042,136.384 348.312,139.873C348.626,143.951 349.313,148.022 347.936,152.077C347.341,153.826 347.112,155.699 346.716,157.517C346.635,157.885 346.414,158.292 346.703,158.614C347.107,159.065 347.57,158.67 347.881,158.476C349.768,157.295 351.582,157.56 353.409,158.596C353.834,158.838 354.332,158.947 354.766,159.175C355.735,159.683 356.034,159.371 355.935,158.344C355.626,155.188 355.393,152.023 355.048,148.87C354.806,146.655 354.885,144.39 353.968,142.269C352.49,138.852 351.083,135.405 349.639,131.974C349.076,130.638 348.491,129.313 347.885,127.911M390.18,161.016C389.234,161.402 389.056,161.955 388.8,162.419C384.032,171.06 378.815,179.394 372.148,186.733C370.406,188.652 369.173,191.01 366.65,192.251C363.262,193.92 363.966,193.155 364.333,196.82C364.47,198.181 365.088,198.546 366.258,198.159C369.498,197.089 372.564,195.833 374.478,192.66C376.143,189.899 378.035,187.269 379.934,184.659C382.234,181.498 384.139,178.176 385.36,174.425C386.793,170.019 388.483,165.697 390.18,161.016M281.303,148.531C282.302,146.63 283.131,144.97 284.039,143.355C284.518,142.504 284.563,141.729 284.084,140.885C282.024,137.263 281.043,133.308 280.457,129.221C279.877,125.175 278.59,121.24 278.634,117.09C278.704,110.529 278.492,103.961 279.241,97.419C279.34,96.561 279.47,95.643 278.964,94.775C277.83,97.46 276.233,99.975 275.826,102.833C275.01,108.563 274.574,114.347 273.785,120.081C273.233,124.083 273.597,128.062 274.764,131.765C276.533,137.381 279.016,142.772 281.303,148.531M249.944,169.42C250.442,166.501 250.797,163.792 251.39,161.135C251.977,158.5 251.935,155.985 251.126,153.386C247.953,143.197 245.812,132.848 246.748,122.076C246.771,121.805 246.754,121.527 246.72,121.256C246.701,121.114 246.604,120.983 246.549,120.863C246.212,120.848 246.129,121.095 246.083,121.282C245.029,125.474 243.545,129.618 243.048,133.877C242.25,140.725 242.364,147.638 243.391,154.507C243.913,157.995 244.21,161.518 244.61,165.026C242.792,160.427 241.23,155.771 239.624,151.131C239.118,149.667 238.861,148.198 238.807,146.642C238.643,141.938 238.379,137.239 238.124,132.538C238.075,131.632 237.893,130.733 237.772,129.83C236.728,135.628 235.848,141.36 235.42,147.126C235.061,151.959 236.704,156.621 237.419,161.365C237.462,161.648 237.72,161.983 237.972,162.138C241.881,164.536 245.805,166.908 249.944,169.42M350.37,185.014C352.32,184.202 354.32,183.464 356.23,182.537C357.294,182.022 357.448,180.735 357.763,179.733C358.452,177.532 359.428,175.994 362.118,176.545C363.072,176.74 363.377,176.246 362.961,175.286C361.922,172.882 360.936,170.456 359.951,168.028C359.704,167.422 359.279,167.085 358.693,166.847C356.218,165.841 353.74,164.835 351.288,163.775C350.671,163.508 350.163,163.566 349.586,163.808C347.176,164.823 344.756,165.812 342.343,166.82C341.844,167.028 341.334,167.216 341.104,167.797C339.975,170.633 338.305,173.384 337.867,176.321C337.546,178.475 339.442,180.635 340.229,182.839C340.338,183.147 340.487,183.44 340.614,183.742C341.41,185.626 341.522,185.72 342.846,184.141C344.023,182.737 345.141,182.649 346.655,183.469C347.8,184.09 349.067,184.484 350.37,185.014M295.163,84.573C294.818,85.173 295.025,85.691 295.084,86.226C295.338,88.555 296.322,90.848 296.001,93.176C295.401,97.506 294.523,101.797 293.717,106.096C292.468,112.763 291.049,119.409 291.622,126.263C291.665,126.777 291.436,127.348 291.888,127.83C292.593,127.626 292.442,126.64 293.304,126.417C293.304,127.009 293.301,127.536 293.304,128.064C293.338,133.925 293.376,139.786 293.402,145.647C293.406,146.527 293.46,147.394 293.688,148.25C295.092,153.539 296.487,158.83 297.896,164.118C297.981,164.441 297.879,164.926 298.467,164.951C298.511,164.788 298.563,164.635 298.593,164.476C299.958,157.373 300.578,150.173 301.255,142.986C301.546,139.89 302.184,136.806 301.92,133.67C301.639,130.346 301.288,127.028 301.032,123.703C300.368,115.084 299.525,106.468 299.651,97.816C299.725,92.8 297.388,88.74 295.163,84.573M265.203,248.069C266.81,247.415 268.389,246.626 270.056,246.125C272.934,245.262 274.956,243.681 275.605,240.609C276.355,237.059 278.305,235.233 282.161,236.059C283.489,236.344 283.58,235.679 283.099,234.56C281.589,231.046 280.158,227.497 278.724,223.951C278.415,223.187 277.926,222.727 277.158,222.419C273.561,220.969 269.977,219.486 266.401,217.982C265.652,217.667 265.008,217.603 264.217,217.941C260.606,219.487 256.968,220.973 253.326,222.443C252.553,222.755 252.104,223.235 251.793,224.006C250.34,227.601 248.857,231.186 247.331,234.752C246.975,235.583 247.02,236.288 247.367,237.095C248.489,239.706 249.528,242.352 250.655,244.961C251.19,246.2 251.325,248.215 252.388,248.466C253.52,248.731 254.335,246.839 255.376,245.988C255.461,245.919 255.543,245.843 255.608,245.757C256.301,244.842 257.058,244.68 258.154,245.206C260.027,246.104 261.986,246.827 263.912,247.614C264.314,247.778 264.732,247.905 265.203,248.069M327.546,217.593C327.214,217.7 326.95,217.767 326.701,217.87C322.92,219.434 319.15,221.028 315.353,222.551C314.572,222.863 314.323,223.451 314.052,224.109C312.594,227.643 311.163,231.19 309.642,234.697C309.255,235.587 309.301,236.302 309.669,237.161C311.028,240.323 312.319,243.514 313.637,246.695C314.627,249.085 314.627,249.085 316.443,247.268C319.085,244.629 319.202,244.408 322.444,246.131C325.844,247.936 328.827,247.832 332.327,246.236C335.117,244.965 337.265,243.577 337.911,240.511C338.666,236.937 340.669,235.343 344.374,236.063C345.532,236.289 345.971,235.864 345.425,234.607C343.9,231.099 342.444,227.561 341.021,224.012C340.682,223.169 340.145,222.701 339.338,222.374C335.848,220.953 332.371,219.495 328.887,218.059C328.438,217.875 327.969,217.738 327.546,217.593M267.361,58.892C268.351,59.635 269.573,59.787 270.698,60.156C280.255,63.292 289.824,66.391 299.396,69.483C300.45,69.824 301.401,70.295 302.292,70.966C306.272,73.965 310.309,76.888 314.259,79.924C315.247,80.683 315.731,80.527 316.489,79.644C320.556,74.906 324.681,70.218 328.804,65.529C329.214,65.062 329.504,64.432 330.407,64.165C330.407,67.477 330.582,70.699 330.37,73.896C329.961,80.073 330.927,85.962 333.346,91.653C334.091,93.408 334.643,95.253 335.185,97.087C335.562,98.364 335.897,98.576 336.902,97.495C341.714,92.321 346.592,87.207 351.446,82.072C353.206,80.211 354.967,78.35 357.059,76.607C356.787,78.947 356.523,81.287 356.243,83.626C355.531,89.602 354.835,95.58 354.08,101.551C353.935,102.704 354.249,103.453 355.151,104.217C361.506,109.596 367.796,115.05 374.142,120.439C374.98,121.152 375.471,121.958 375.767,122.991C377.702,129.772 379.702,136.534 381.601,143.325C381.978,144.674 382.314,144.631 383.226,143.759C387.46,139.707 391.737,135.699 396.003,131.68C396.36,131.343 396.694,130.912 397.126,130.734C401.149,129.066 405.192,127.446 409.435,126.043C407.893,128.402 406.531,130.907 404.769,133.089C401.51,137.125 400.065,141.535 400.709,146.729C401.004,149.104 400.647,151.551 400.797,153.953C401.237,160.973 400.567,167.815 397.81,174.354C397.203,175.79 397.653,176.134 399.11,176.016C402.707,175.724 406.315,175.547 409.94,175.323C409.994,176.015 409.423,176.168 409.088,176.457C404.199,180.684 399.315,184.918 394.377,189.087C393.239,190.048 392.416,191.09 392.143,192.569C391.532,195.871 389.999,198.616 387.111,200.456C385.644,201.391 386.527,202.385 386.881,203.426C387.273,204.581 388.092,204.156 388.899,204.135C391.646,204.059 393.414,202.095 395.529,200.809C396.731,200.077 397.871,199.244 399.321,198.266C397.556,201.295 396.033,204.05 394.367,206.713C393.276,208.456 391.431,209.473 389.913,210.8C387.356,213.032 384.71,215.163 382.125,217.365C381.483,217.911 380.768,218.268 379.999,218.57C375.108,220.491 370.221,222.418 365.333,224.347C364.198,224.795 362.941,225.129 363.844,226.857C364.204,227.546 363.389,227.759 362.988,228.04C360.435,229.833 357.866,231.608 355.278,233.351C354.45,233.909 353.736,234.393 354.414,235.55C354.753,236.13 354.365,236.718 354.138,237.268C351.845,242.809 349.526,248.341 347.27,253.896C346.891,254.828 346.356,255.407 345.425,255.787C339.867,258.05 334.319,260.339 328.79,262.669C327.901,263.044 327.173,262.969 326.315,262.612C320.426,260.151 314.518,257.734 308.615,255.302L308.646,255.332C307.324,253.053 306.589,250.523 305.602,248.104C305.231,247.199 304.774,246.899 303.809,246.908C298.878,246.957 293.947,246.959 289.016,246.906C288.079,246.895 287.668,247.226 287.368,248.058C286.795,249.649 286.01,251.169 285.522,252.781C284.981,254.564 283.894,255.528 282.17,256.202C276.937,258.248 271.761,260.443 266.581,262.623C265.72,262.985 264.987,263.028 264.106,262.657C258.573,260.328 253.024,258.035 247.462,255.773C246.582,255.415 246.065,254.868 245.711,254.004C243.422,248.4 241.104,242.809 238.773,237.223C238.461,236.477 238.389,235.828 238.722,235.038C241.141,229.297 243.526,223.542 245.876,217.772C246.159,217.076 246.62,216.74 247.239,216.486C252.94,214.146 258.646,211.819 264.335,209.45C265.002,209.172 265.542,209.172 266.201,209.446C271.952,211.839 277.708,214.223 283.489,216.545C284.454,216.932 284.745,217.671 285.079,218.472C286.546,221.994 286.546,221.994 290.38,221.994C295.201,221.994 300.023,221.961 304.844,222.019C305.978,222.033 306.738,221.803 307.004,220.611C307.644,217.728 309.539,216.288 312.283,215.305C317,213.615 321.584,211.549 326.203,209.593C327.186,209.176 328.014,209.214 329,209.632C334.132,211.805 339.447,213.606 344.394,216.136C347.425,217.686 350.23,217.343 353.229,216.973C354.802,216.78 356.392,216.651 357.938,216.324C359.027,216.093 359.729,216.206 360.011,217.389C360.196,218.163 360.595,218.192 361.177,217.707C364.492,214.941 367.82,212.189 371.027,209.161C364.392,211.104 357.756,213.047 350.812,215.08C352.856,212.724 354.657,210.616 356.5,208.544C357.249,207.702 358.003,206.913 357.45,205.663C356.943,204.518 355.869,205.37 355.032,204.929C355.68,204.243 357.138,204.14 356.744,202.714C356.335,201.229 355.283,200.162 354.308,199.079C353.888,198.614 353.284,199.172 352.82,199.412C349.756,200.997 346.705,202.609 343.644,204.199C343.13,204.466 342.675,204.903 341.777,204.851C344.111,202.125 346.325,199.519 348.56,196.931C349.885,195.395 349.898,195.41 348.053,194.637C346.644,194.047 345.217,193.494 343.839,192.838C342.928,192.405 342.408,192.59 341.831,193.426C339.182,197.254 336.472,201.041 333.763,204.828C333.346,205.41 333.033,206.245 331.883,205.957C332.705,204.471 333.881,203.344 334.832,202.055C335.068,201.735 335.586,201.399 335.243,200.951C334.995,200.628 334.535,200.865 334.162,200.954C330.02,201.951 325.881,202.968 321.727,203.915C319.659,204.386 317.561,204.722 315.153,205.18C316.169,203.228 317.076,201.483 317.983,199.738C317.883,199.615 317.782,199.493 317.681,199.37C315.405,200.855 313.129,202.342 310.854,203.826L310.678,203.671C311.379,202.742 312.023,201.762 312.791,200.893C317.292,195.79 320.275,189.736 323.662,183.917C325.414,180.907 326.079,177.888 326.067,174.434C326.043,167.155 326.391,159.874 326.563,152.593C326.576,151.981 326.798,151.308 326.339,150.731C325.743,150.911 325.844,151.417 325.747,151.816C323.709,160.216 321.668,168.615 319.642,177.017C319.486,177.662 319.324,178.28 318.931,178.832C315.051,184.271 311.18,189.718 307.046,195.106C308.792,180.357 310.539,165.607 312.297,150.76C311.608,150.852 311.682,151.298 311.593,151.608C308.118,163.704 304.655,175.803 301.168,187.896C300.847,189.009 300.929,189.985 301.43,191.05C303.082,194.568 304.516,198.194 306.282,201.651C307.39,203.817 307.047,205.886 306.214,207.796C305.178,210.174 303.648,212.338 302.074,214.52C302.25,212.07 302.427,209.62 302.603,207.17C302.498,207.131 302.393,207.093 302.287,207.054C300.412,209.822 298.537,212.591 296.609,215.435C294.251,212.697 292.77,209.568 290.479,206.629C289.826,209.235 290.843,211.479 290.475,214.113C288.612,210.511 285.902,207.71 286.128,203.49C286.252,201.166 285.757,198.81 285.571,196.466C285.525,195.889 285.348,195.412 284.96,194.988C281.043,190.702 277.129,186.412 273.21,182.128C273.069,181.975 272.876,181.872 272.648,181.7C272.267,182.271 272.651,182.671 272.82,183.069C274.546,187.155 276.111,191.321 278.076,195.288C279.667,198.5 279.201,201.883 279.773,205.241C279.569,205.179 279.484,205.176 279.476,205.148C277.649,199.579 273.166,195.905 269.71,191.504C267.953,189.265 266.039,187.15 264.188,184.986C264.055,184.83 263.847,184.738 263.584,184.552C263.286,185.346 263.756,185.871 264.002,186.413C266.398,191.698 268.819,196.974 271.219,202.259C271.409,202.678 271.913,203.155 271.503,203.587C271.138,203.971 270.586,203.633 270.109,203.532C265.958,202.659 261.802,201.804 257.35,200.882C258.796,202.689 260.072,204.283 261.63,206.23C259.147,205.919 257.102,206.138 255.057,205.806C254.005,205.635 253.795,204.859 253.474,204.132C251.575,199.823 249.691,195.508 247.818,191.188C247.53,190.522 247.191,189.926 246.612,189.464C238.569,183.032 230.532,176.594 222.491,170.161C222.247,169.966 221.977,169.804 221.629,169.719C229.968,181.438 240.618,191.421 247.309,204.254C238.636,199.801 232.264,192.576 225.711,185.562C225.578,185.675 225.445,185.787 225.312,185.899C225.758,186.743 226.199,187.589 226.652,188.429C227.589,190.163 228.496,191.916 229.485,193.621C230.747,195.795 231.556,198.309 233.311,200.099C235.055,201.879 237.237,203.227 239.412,204.909C237.794,205.26 236.356,204.947 234.94,205.049C234.625,205.071 234.172,205.059 234.032,205.247C233.739,205.642 234.2,205.931 234.426,206.196C236.342,208.449 238.28,210.683 240.205,212.93C240.59,213.38 240.945,213.855 241.233,214.501C234.638,213.093 228.273,210.925 221.435,209.041C225.064,215.009 228.527,220.704 232.047,226.494C231.782,226.536 231.606,226.622 231.519,226.568C225.992,223.108 219.724,221.356 213.747,218.951C211.151,217.906 209.306,215.997 207.22,214.347C205.073,212.649 203.091,210.735 200.9,209.1C198.22,207.101 197.153,204.04 195.441,201.401C194.851,200.492 194.432,199.48 193.769,198.456C198.893,202.887 204.741,205.216 211.55,204.986C210.215,203.096 208.984,201.085 207.487,199.296C204.674,195.934 203.113,192.01 201.991,187.869C201.568,186.308 200.716,185.22 199.404,184.263C193.881,180.236 188.431,176.106 182.947,172.009C183.222,171.556 183.58,171.721 183.859,171.739C190.797,172.211 197.737,172.669 204.67,173.207C205.973,173.307 206.471,173.204 206.091,171.692C205.306,168.564 204.741,165.382 204.02,162.237C203.694,160.817 203.745,159.483 204.105,158.057C207.16,145.97 210.15,133.868 213.156,121.77C213.249,121.4 213.263,121.006 213.673,120.66C215.575,126.951 217.462,133.196 219.455,139.788C221.884,134.326 224.174,129.245 226.4,124.137C227.367,121.921 228.509,119.826 229.879,117.83C232.854,113.497 235.708,109.079 238.699,104.757C239.616,103.432 239.995,102.051 240.117,100.49C240.769,92.139 241.465,83.791 242.152,75.443C242.164,75.298 242.254,75.16 242.412,74.745C248.859,82.681 255.188,90.47 261.639,98.411C264.043,94.924 266.138,91.432 268.692,88.316C270.962,85.546 271.267,82.817 270.566,79.421C269.274,73.158 268.432,66.802 267.394,60.487C267.306,59.95 267.155,59.424 267.033,58.892L267.361,58.892Z" style="fill:white;"/>
        </g>
        <g transform="matrix(1,0,0,1,-120.611,-43.7732)">
            <path d="M354.624,247.862C360.88,243.883 363.157,237.034 366.811,230.63C364.433,231.659 362.38,232.547 360.058,233.552C363.203,229.494 367.001,226.908 371.364,224.974C374.859,223.425 378.393,221.837 381.582,219.764C384.633,217.781 387.156,215.004 390.104,212.84C393.901,210.052 396.534,206.542 397.946,202.069C398.172,201.353 398.568,200.69 399.061,200.064C397.102,208.728 395.138,217.391 393.19,226.057C393.049,226.686 392.662,227.124 392.26,227.571C388.564,231.685 384.861,235.791 381.182,239.92C380.653,240.512 380.037,240.906 379.322,241.212C374.347,243.335 369.376,245.472 364.401,247.596C364.107,247.723 363.782,247.848 363.471,247.85C360.521,247.87 357.572,247.862 354.624,247.862" style="fill:white;"/>
        </g>
        <g transform="matrix(1,0,0,1,-120.611,-43.7732)">
            <path d="M194.062,200.028C195.119,202.424 196.179,204.817 197.23,207.215C197.494,207.817 197.736,208.415 198.262,208.862C202.344,212.344 206.239,216.075 210.549,219.244C213.83,221.656 217.672,223.3 221.431,224.932C225.826,226.84 229.653,229.439 232.855,233.54C230.543,232.543 228.516,231.667 226.08,230.616C229.772,237.02 232.014,243.889 238.493,247.909C234.302,247.427 230.173,248.664 226.202,246.626C222.226,244.585 217.996,243.035 213.854,241.323C212.859,240.911 212.081,240.319 211.374,239.523C207.992,235.716 204.606,231.912 201.154,228.169C200.223,227.159 199.696,226.06 199.404,224.744C197.582,216.539 195.722,208.343 193.875,200.143C193.937,200.104 194,200.066 194.062,200.028" style="fill:white;"/>
        </g>
        <g transform="matrix(1,0,0,1,-120.611,-43.7732)">
            <path d="M277.56,270.003C292.017,270.167 306.476,270.212 320.935,270.087C324.684,270.055 328.436,270.105 332.185,270.002C346.324,269.617 360.471,269.314 374.569,268.031C378.578,267.667 382.572,267.186 386.539,266.471C391.803,265.523 396.406,263.164 400.744,260.149C405.288,256.992 409.392,253.271 413.852,250.007C417.116,247.619 420.493,245.398 424.569,244.743C429.06,244.023 433.524,244.392 437.916,245.607C443.299,247.101 448.09,249.844 452.862,252.633C454.421,253.545 455.975,254.462 457.611,255.424C456.935,255.925 456.207,256.193 455.437,256.341C450.496,257.285 445.573,258.349 440.604,259.114C435.798,259.856 431.061,260.935 426.268,261.726C425.785,261.805 425.622,262.031 425.511,262.469C424.7,265.645 423.863,268.814 423.038,271.985C422.356,274.608 421.693,277.238 420.99,279.856C420.855,280.354 420.918,280.747 421.173,281.179C423.958,285.905 426.747,290.629 429.492,295.379C429.976,296.217 430.458,296.481 431.468,296.292C440.698,294.568 449.941,292.913 459.181,291.238C459.511,291.179 459.844,291.087 460.174,291.091C460.989,291.1 461.443,291.943 460.998,292.609C458.839,295.842 457.216,299.388 455.106,302.649C454.271,303.939 453.397,305.202 452.541,306.478C451.495,307.615 450.451,308.751 449.405,309.889C448.435,310.365 447.781,311.238 446.929,311.869C441.223,316.091 434.704,317.503 427.748,317.757C421.881,317.972 416.851,315.972 412.22,312.649C408.353,309.875 404.581,306.969 400.691,304.228C398.912,302.974 397.077,301.853 395.176,300.892C380.803,292.43 355.581,282.1 320.767,284.799C320.767,284.799 339.38,287.815 360.016,295.823C352.318,295.528 344.615,295.395 336.912,295.302C326.346,295.176 315.779,295.198 305.214,295.306C289.313,295.468 273.415,295.804 257.522,296.321C246.355,296.685 235.197,297.214 224.039,297.767C213.254,298.301 203.337,301.501 194.014,306.8C189.216,309.526 184.583,312.531 179.722,315.157C170.994,319.872 161.882,321.079 152.303,318.359C150.692,317.903 149.19,317.182 147.704,316.357L145.195,314.046C144.041,312.343 143.276,310.522 142.901,308.517C142.762,307.775 142.884,307.392 143.688,307.137C148.027,305.762 152.293,304.168 156.65,302.835C160.779,301.572 164.823,300.035 168.919,298.664C169.621,298.428 169.916,298.071 170.022,297.354C170.891,291.486 171.788,285.624 172.697,279.764C172.776,279.256 172.675,278.903 172.36,278.489C169.043,274.119 165.734,269.744 162.482,265.326C162.011,264.686 161.63,264.69 160.994,264.904C157.695,266.024 154.386,267.108 151.08,268.207C146.661,269.674 142.235,271.124 137.828,272.626C136.952,272.925 136.784,272.719 136.794,271.847C136.831,269.039 137.263,266.318 138.237,263.677C138.924,261.814 140.028,260.179 140.98,258.46C141.979,257.372 142.979,256.285 143.978,255.197C145.413,254.281 146.685,253.136 148.17,252.285C153.545,249.21 159.374,247.898 165.507,247.804C169.376,247.745 173.223,248.022 176.923,249.276C180.17,250.378 182.987,252.287 185.625,254.399C191.105,258.787 196.991,262.129 203.271,264.478C217.662,271.517 237.88,277.777 263.745,277.184C263.745,277.184 252.389,274.703 237.747,269.225L277.56,270.003Z" style="fill:white;fill-rule:nonzero;"/>
        </g>
        <g transform="matrix(1,0,0,1,-120.611,-43.7732)">
            <path d="M251.013,318.62C250.339,315.152 249.311,313.417 247.93,313.417L223.267,313.417C222.368,313.417 221.918,313.868 221.918,314.766L221.918,315.345C221.918,315.763 222.625,318.075 224.037,322.281L252.362,322.281C251.559,319.841 251.11,318.62 251.013,318.62M269.317,306.288C267.391,307.476 266.428,308.697 266.428,309.949L266.428,311.876C266.428,312.294 269.639,322.12 276.061,341.356L258.913,341.356C258.753,341.356 258.496,340.907 258.142,340.008C255.959,333.071 254.739,329.603 254.481,329.603L226.35,329.603C226.735,331.048 228.084,334.901 230.396,341.164L230.011,341.356L212.862,341.356C207.21,325.75 204.384,316.693 204.384,314.189C204.384,313.643 204.449,312.936 204.577,312.069C206.214,307.959 209.748,305.903 215.174,305.903L269.317,305.903L269.317,306.288Z" style="fill:white;fill-rule:nonzero;"/>
        </g>
        <g transform="matrix(1,0,0,1,-120.611,-43.7732)">
            <path d="M334.593,305.979L392.59,305.979L392.59,306.171C387.42,310.924 382.537,313.301 377.947,313.301L358.871,313.301C356.206,313.301 354.535,314.329 353.861,316.383L352.705,319.852L382.763,319.852L382.763,320.044C376.983,325.055 372.231,327.559 368.504,327.559L350.007,327.559C349.751,327.559 348.531,331.028 346.346,337.964C345.64,339.988 345.127,341.143 344.805,341.432L328.235,341.432L327.849,341.24C331.574,330.707 334.85,320.88 337.676,311.758L337.676,310.603C337.676,309.287 336.649,307.809 334.593,306.171L334.593,305.979Z" style="fill:white;fill-rule:nonzero;"/>
        </g>
        <g transform="matrix(1,0,0,1,-120.611,-43.7732)">
            <path d="M304.863,317.309L311.009,317.309C312.52,317.309 313.277,317.959 313.277,319.262L313.277,319.341C313.277,319.848 312.234,323.132 310.15,329.189C308.996,330.714 306.374,331.532 302.322,331.663C298.27,331.532 295.649,330.714 294.494,329.189C292.41,323.132 291.367,319.848 291.367,319.341L291.367,319.262C291.367,317.959 292.124,317.309 293.635,317.309L299.781,317.309M323.517,310.04L304.423,310.04L300.222,310.04L281.128,310.04C278.086,310.04 276.569,311.352 276.569,313.973L276.569,314.13C276.569,315.152 278.663,321.756 282.859,333.942C285.1,336.9 290.055,338.552 297.717,338.902C297.715,338.925 297.712,338.95 297.709,338.974L306.935,338.974C306.932,338.95 306.93,338.925 306.927,338.902C314.59,338.552 319.545,336.9 321.786,333.942C325.98,321.756 328.075,315.152 328.075,314.13L328.075,313.973C328.075,311.352 326.558,310.04 323.517,310.04" style="fill:white;fill-rule:nonzero;"/>
        </g>
        <g transform="matrix(1,0,0,1,-120.611,-43.7732)">
            <path d="M356.61,339.797L356.175,341.591L358.938,341.591L359.375,339.797L356.61,339.797Z" style="fill:white;fill-rule:nonzero;"/>
        </g>
        <g transform="matrix(1,0,0,1,-120.611,-43.7732)">
            <path d="M366.275,332.463C365.456,332.463 364.693,332.672 364.009,333.085C363.35,333.483 362.951,333.957 362.82,334.495L361.54,339.711C361.516,339.815 361.504,339.922 361.504,340.025C361.504,340.461 361.706,340.817 362.121,341.112C362.566,341.429 363.148,341.591 363.852,341.591L370.025,341.591C370.844,341.591 371.607,341.381 372.292,340.969C372.95,340.571 373.35,340.098 373.48,339.558L374.306,336.212L369.025,336.212L368.631,337.842L370.466,337.842L370.104,339.307L365.077,339.307L366.197,334.746L374.647,334.746L375.228,332.463L366.275,332.463Z" style="fill:white;fill-rule:nonzero;"/>
        </g>
        <g transform="matrix(1,0,0,1,-120.611,-43.7732)">
            <path d="M381.226,332.463C380.407,332.463 379.644,332.672 378.959,333.085C378.3,333.483 377.901,333.957 377.771,334.495L376.49,339.711C376.467,339.815 376.454,339.922 376.454,340.025C376.454,340.461 376.656,340.817 377.072,341.112C377.516,341.429 378.099,341.591 378.803,341.591L384.975,341.591C385.794,341.591 386.557,341.381 387.242,340.969C387.9,340.571 388.3,340.098 388.431,339.558L389.256,336.212L383.975,336.212L383.582,337.842L385.416,337.842L385.054,339.307L380.027,339.307L381.146,334.746L389.597,334.746L390.18,332.463L381.226,332.463Z" style="fill:white;fill-rule:nonzero;"/>
        </g>
    </g>
</svg>
