<?xml version="1.0" standalone="no"?>
<!DOCTYPE svg PUBLIC "-//W3C//DTD SVG 1.1//EN" "http://www.w3.org/Graphics/SVG/1.1/DTD/svg11.dtd">
<svg width="100%" height="100%" viewBox="0 0 24 24" version="1.1" xmlns="http://www.w3.org/2000/svg" xmlns:xlink="http://www.w3.org/1999/xlink" xml:space="preserve" style="fill-rule:evenodd;clip-rule:evenodd;stroke-linecap:round;stroke-linejoin:round;stroke-miterlimit:1.41421;">
    <g id="Layer1">
        <g transform="matrix(1,0,0,1,-697.52,-956)">
            <circle cx="709.52" cy="968" r="10" style="fill:none;stroke-width:1px;stroke:rgb(253,253,253);"/>
        </g>
        <g transform="matrix(1,0,0,1,-795.52,-956)">
            <circle cx="807.52" cy="968" r="2" style="fill:none;stroke-width:1px;stroke:rgb(253,253,253);"/>
        </g>
        <g transform="matrix(-0.979022,-1.90077e-13,1.90077e-13,-0.979022,802.608,959.835)">
            <path d="M806.232,966.556L800.571,960.895" style="fill:none;stroke-width:1.02px;stroke:rgb(253,253,253);"/>
        </g>
        <g transform="matrix(-0.920719,0.332807,-0.332807,-0.920719,1077.99,633.943)">
            <path d="M806.232,966.556L800.571,960.895" style="fill:none;stroke-width:1.02px;stroke:rgb(253,253,253);"/>
        </g>
        <g transform="matrix(0.979022,1.89523e-13,-1.89523e-13,0.979022,-778.552,-935.85)">
            <path d="M806.232,966.556L800.571,960.895" style="fill:none;stroke-width:1.02px;stroke:rgb(253,253,253);"/>
        </g>
        <g transform="matrix(0.920719,-0.332807,0.332807,0.920719,-1053.93,-609.958)">
            <path d="M806.232,966.556L800.571,960.895" style="fill:none;stroke-width:1.02px;stroke:rgb(253,253,253);"/>
        </g>
    </g>
</svg>
