<?xml version="1.0" standalone="no"?>
<!DOCTYPE svg PUBLIC "-//W3C//DTD SVG 1.1//EN" "http://www.w3.org/Graphics/SVG/1.1/DTD/svg11.dtd">
<svg width="100%" height="100%" viewBox="0 0 24 24" version="1.1" xmlns="http://www.w3.org/2000/svg" xmlns:xlink="http://www.w3.org/1999/xlink" xml:space="preserve" style="fill-rule:evenodd;clip-rule:evenodd;stroke-linejoin:round;stroke-miterlimit:1.41421;">
    <g transform="matrix(0.297939,0,0,0.297939,-2.89693,-5.17423)">
        <g id="Layer1">
            <path d="M79.969,49.095L62.553,35.796C62.109,35.404 60.317,34.057 57.16,34.489L57.16,29.109C57.16,28.448 56.692,27.88 56.044,27.753C55.939,27.732 54.229,27.418 52.404,28.374L52.404,22.289C52.404,21.526 51.786,20.907 51.022,20.907C38.293,20.907 27.937,31.217 27.937,43.89L27.937,77.495C25.84,77.736 24.2,79.502 24.2,81.663C24.2,82.617 24.531,83.488 25.067,84.195C21.838,85.826 19.569,89.142 19.488,92.969C19.48,93.341 19.622,93.699 19.883,93.965C20.143,94.231 20.499,94.38 20.87,94.38L67.452,94.38C67.824,94.38 68.18,94.231 68.439,93.965C68.698,93.699 68.841,93.341 68.834,92.969C68.753,89.142 66.485,85.825 63.257,84.195C63.793,83.488 64.123,82.617 64.123,81.663C64.123,79.345 62.244,77.461 59.929,77.449C60.242,75.03 60.542,67.773 53.795,63.522C53.378,63.273 50.016,61.096 51.257,56.404L68.55,61.408C69.026,61.549 69.541,61.419 69.896,61.073L80.092,51.184C80.381,50.904 80.533,50.512 80.51,50.11C80.485,49.71 80.288,49.339 79.969,49.095ZM65.9,91.618L22.421,91.618C23.147,88.35 26.09,85.882 29.546,85.882L58.775,85.882C62.232,85.882 65.175,88.351 65.9,91.618ZM61.359,81.664C61.359,82.465 60.708,83.116 59.907,83.116L28.416,83.116C27.615,83.116 26.964,82.465 26.964,81.664C26.964,80.863 27.615,80.212 28.416,80.212L59.907,80.212C60.708,80.212 61.359,80.863 61.359,81.664ZM68.547,58.531L50.751,53.382C50.068,53.185 49.347,53.537 49.084,54.197C46.577,60.489 50.158,64.61 52.358,65.884C58.16,69.54 57.358,76.156 57.138,77.448L30.701,77.448L30.701,57.751L34.16,57.751C34.923,57.751 35.542,57.133 35.542,56.369C35.542,55.605 34.923,54.987 34.16,54.987L30.701,54.987L30.701,50.065L34.16,50.065C34.923,50.065 35.542,49.446 35.542,48.683C35.542,47.92 34.923,47.301 34.16,47.301L30.701,47.301L30.701,43.89C30.701,43.467 30.736,43.052 30.762,42.635L34.16,42.635C34.923,42.635 35.542,42.016 35.542,41.253C35.542,40.49 34.923,39.871 34.16,39.871L31.109,39.871C31.577,37.574 32.447,35.425 33.627,33.48L36.556,35.374C36.788,35.524 37.048,35.596 37.305,35.596C37.759,35.596 38.202,35.373 38.467,34.964C38.882,34.323 38.698,33.467 38.057,33.053L35.216,31.216C36.683,29.408 38.45,27.852 40.45,26.634L42.816,30.402C43.079,30.82 43.528,31.049 43.988,31.049C44.239,31.049 44.493,30.981 44.721,30.837C45.367,30.431 45.562,29.578 45.157,28.932L42.921,25.37C45.006,24.463 47.263,23.876 49.641,23.716L49.641,31.564C49.641,32.182 50.051,32.725 50.646,32.894C51.243,33.063 51.876,32.815 52.2,32.29C52.888,31.174 53.731,30.72 54.397,30.545L54.397,36.216C54.397,36.656 54.606,37.07 54.961,37.33C55.314,37.59 55.772,37.667 56.192,37.534C59.275,36.568 60.647,37.796 60.68,37.825C60.727,37.873 60.777,37.918 60.83,37.959L77.015,50.317L68.547,58.531Z" style="fill:rgb(253,253,253);fill-rule:nonzero;"/>
        </g>
    </g>
</svg>
